<?xml version="1.0" encoding="utf-8"?>
<!-- Generator: Adobe Illustrator 25.2.1, SVG Export Plug-In . SVG Version: 6.00 Build 0)  -->
<svg version="1.2" baseProfile="tiny" id="Camada_1"
	 xmlns="http://www.w3.org/2000/svg" xmlns:xlink="http://www.w3.org/1999/xlink" x="0px" y="0px" viewBox="0 0 800 800"
	 overflow="visible" xml:space="preserve">
<path d="M407.1,440c-12.8-10.9-27.2-18.7-42.9-24.6c-13.2-4.9-27.1-5.7-40.8-7.8c-14.4-2.2-26-9.2-33.9-22
	c-19.5-31.5-5.6-69,29.5-78.4c7.8-2.1,15.9-1.7,23.7-3.1c37.6-6.8,67.3-25.9,89-57.2c10.9-15.8,25.6-24.5,44.9-24.3
	c30.7,0.4,54.3,28.2,49.8,58.5c-3.5,23.1-21.2,41.5-44.5,43.6c-24.5,2.2-47.4,8.4-68.2,21.9c-4.9,3.2-9.6,6.5-14.1,10.6
	c16.8,14.1,35.6,23.4,56.6,28.6c8.9,2.2,18.1,2.5,27.1,3.8c23.5,3.4,42.1,24.5,43.5,46.7c1.8,27.2-17.9,51-42.4,54.5
	c-13.2,1.9-26.5,2.8-39.2,7.1C415.3,508,391.5,526,374,552.2c-7.3,10.8-17.3,18.3-30,20.9c-19.6,4.1-36.6-0.1-50.6-15.9
	c-8.2-9.3-12.7-19.4-13.1-31.3c-0.4-14,3.5-26.8,13.3-37.3c10.1-10.8,22.7-15.8,37.2-16.8c27.4-1.9,51.6-11.9,73.2-28.8
	c0.8-0.6,1.5-1.3,2.3-2C406.6,440.8,406.7,440.5,407.1,440z M351.1,523.6c0.1-8.4-9.1-20.5-15.8-20.9c-12.1-0.7-24.3,10-24.3,21.4
	c0,9.1,10.8,19.5,20.8,19C343.3,542.5,350.7,534.2,351.1,523.6z M475.1,459.8c10.9,0.2,19.8-8.5,20-19.3c0.2-10.5-8.5-19.6-19-19.8
	c-10.9-0.3-19.9,8.2-20.2,19.1C455.6,450.5,464.3,459.7,475.1,459.8z M331.2,337.6c-10.8,0.1-19.7,9.3-19.4,19.9
	c0.3,10.7,9,19.2,19.6,19.2c10.8,0,19.6-8.8,19.6-19.7C351,346.1,342.1,337.5,331.2,337.6z M475.3,293.7
	c10.7,0.1,19.8-8.9,19.8-19.7c0-10.7-9-19.7-19.7-19.7c-10.6,0.1-19.4,8.7-19.5,19.4C455.7,284.5,464.5,293.6,475.3,293.7z"/>
<path fill="#EC7791" d="M351.1,523.6c-0.3,10.7-7.8,18.9-19.3,19.5c-10,0.5-20.8-9.8-20.8-19c0.1-11.4,12.2-22.1,24.3-21.4
	C342,503.1,351.2,515.2,351.1,523.6z"/>
<path fill="#EC7791" d="M475.1,459.8c-10.8-0.2-19.5-9.3-19.2-20.1c0.3-10.8,9.3-19.4,20.2-19.1c10.5,0.3,19.2,9.3,19,19.8
	C494.9,451.4,485.9,460,475.1,459.8z"/>
<path fill="#EC7791" d="M331.2,337.6c10.9-0.1,19.8,8.6,19.8,19.5c0.1,10.8-8.7,19.7-19.6,19.7c-10.6,0-19.4-8.5-19.6-19.2
	C311.5,346.8,320.4,337.7,331.2,337.6z"/>
<path fill="#EC7791" d="M475.3,293.7c-10.8-0.1-19.7-9.2-19.5-19.9c0.2-10.7,8.9-19.3,19.5-19.4c10.7-0.1,19.8,8.9,19.7,19.7
	C495.1,284.8,486.1,293.8,475.3,293.7z"/>
</svg>
