<?xml version="1.0" encoding="utf-8"?>
<!-- Generator: Adobe Illustrator 25.2.1, SVG Export Plug-In . SVG Version: 6.00 Build 0)  -->
<svg version="1.2" baseProfile="tiny" id="Camada_1"
	 xmlns="http://www.w3.org/2000/svg" xmlns:xlink="http://www.w3.org/1999/xlink" x="0px" y="0px" viewBox="0 0 300 300"
	 overflow="visible" xml:space="preserve">
<g>
	<path fill="#1A092E" d="M149.9,168.9c1-0.8,2.1-0.5,3.2-0.5c16.6,0,33.1,0,49.7,0c5.6,0,7.8-2.1,7.8-7.5c0-33,0-65.9,0-98.9
		c0-1.8-0.3-3.3-1.6-4.6c-10.4-10.4-20.8-20.8-31.3-31.2c-0.7-0.7-1.3-1.6-2.5-1.2c-1.2,0.4-1,1.6-1,2.5c-0.1,1.3,0,2.5,0,3.8
		c0,22.2,0.1,44.3,0.1,66.5c0,1.1,0.7,2.8-0.9,3.3c-1.1,0.3-1.8-1.1-2.6-1.9c-7-6.9-13.8-14-20.9-20.7c-19-17.7-41.6-25-67-20.7
		c-30.6,5.2-51.9,23-61.9,52.4c-9.9,29.4-3.8,56.3,17.2,79.3c9.3,10.1,19.3,19.6,29,29.3c0.8,0.8,1.6,2.4,3,1.8
		c1.7-0.6,1.1-2.4,1.1-3.7c0-12.5-0.3-25,0.2-37.4c0.2-5.8-1.6-9.9-5.7-14c-16.9-16.6-16.9-43-0.4-59.7
		c16.6-16.7,42.9-16.9,59.8-0.4c6.5,6.4,12.9,12.9,19.4,19.3c2,2,4.3,3.9,6.6,6c-2.3,1.5-3.9,1.1-5.4,1.1c-16.1,0-32.3,0-48.4,0
		c-5.8,0-7.9,2-7.9,7.8c0,32.5,0,65.1-0.1,97.6c0,2.9,1,5,3,7c9.4,9.2,18.7,18.6,28.1,27.9c1.2,1.2,2.3,3.7,4.2,3
		c2.3-0.8,1.2-3.5,1.2-5.3c0.1-22.3,0.1-44.6,0.1-66.9c0-1.2-0.5-3,0.6-3.5c1.6-0.8,2.3,1.2,3.2,2c6.9,6.8,13.6,13.8,20.6,20.4
		c18.9,17.5,41.4,24.8,66.7,20.5c30.6-5.2,52-22.9,62-52.3c10-29.3,3.9-56.3-17-79.3c-9.2-10.2-19.3-19.6-29-29.3
		c-0.9-0.9-1.8-2.7-3.4-1.8c-1.4,0.7-0.9,2.5-0.9,3.9c0,11.5,0.4,23-0.1,34.5c-0.3,7.4,1.7,12.7,7,18.1c15.3,15.7,14.9,41.5,0,57.3
		c-15.6,16.5-40.8,18.5-57.7,3.7C167.9,188.5,159.3,178.5,149.9,168.9z"/>
	<path fill="#753CEF" d="M149.9,168.9c9.4,9.6,18,19.6,27.9,28.3c16.9,14.8,42.1,12.7,57.7-3.7c14.9-15.7,15.3-41.6,0-57.3
		c-5.3-5.4-7.3-10.8-7-18.1c0.5-11.5,0.1-23,0.1-34.5c0-1.4-0.5-3.1,0.9-3.9c1.6-0.8,2.5,0.9,3.4,1.8c9.7,9.7,19.8,19.1,29,29.3
		c20.9,23,27,49.9,17,79.3c-10,29.4-31.4,47.1-62,52.3c-25.3,4.3-47.8-3-66.7-20.5c-7.1-6.6-13.7-13.6-20.6-20.4
		c-0.9-0.9-1.7-2.8-3.2-2c-1.1,0.5-0.6,2.3-0.6,3.5c0,22.3,0,44.6-0.1,66.9c0,1.8,1.1,4.5-1.2,5.3c-1.9,0.7-2.9-1.8-4.2-3
		c-9.4-9.3-18.7-18.6-28.1-27.9c-2-2-3-4.1-3-7c0.1-32.5,0-65.1,0.1-97.6c0-5.8,2-7.8,7.9-7.8c16.1,0,32.3,0,48.4,0
		c1.5,0,3,0.4,5.4-1.1c-2.3-2.1-4.5-3.9-6.6-6c-6.5-6.4-12.9-12.9-19.4-19.3C108.3,88.9,82,89,65.4,105.7
		c-16.5,16.6-16.5,43.1,0.4,59.7c4.2,4.1,5.9,8.2,5.7,14c-0.4,12.5-0.1,25-0.2,37.4c0,1.3,0.6,3.1-1.1,3.7c-1.4,0.5-2.2-1-3-1.8
		c-9.7-9.7-19.8-19.1-29-29.3c-21-23-27.1-49.9-17.2-79.3C30.9,80.8,52.2,63,82.8,57.8c25.5-4.3,48.1,3,67,20.7
		c7.2,6.7,13.9,13.8,20.9,20.7c0.8,0.8,1.5,2.2,2.6,1.9c1.5-0.5,0.9-2.2,0.9-3.3c0-22.2-0.1-44.3-0.1-66.5c0-1.3,0-2.5,0-3.8
		c0-0.9-0.1-2.1,1-2.5c1.1-0.4,1.8,0.6,2.5,1.2c10.4,10.4,20.8,20.8,31.3,31.2c1.3,1.3,1.6,2.8,1.6,4.6c0,33,0.1,65.9,0,98.9
		c0,5.4-2.3,7.5-7.8,7.5c-16.6,0-33.1,0-49.7,0C152.1,168.4,150.9,168.1,149.9,168.9z"/>
</g>
</svg>
